<svg aria-hidden="true" style="position: absolute; width: 0; height: 0; overflow: hidden;" version="1.1" xmlns="http://www.w3.org/2000/svg" xmlns:xlink="http://www.w3.org/1999/xlink">
<defs>
<symbol id="icon-close-1" viewBox="0 0 32 32">
<path fill="#fff" style="fill: var(--color1, #fff)" stroke-linejoin="miter" stroke-linecap="butt" stroke-miterlimit="4" stroke-width="1.3333" stroke="#000" d="M23.466 7.9c0.219 0 0.355 0.065 0.462 0.172s0.172 0.242 0.172 0.461c0 0.219-0.065 0.355-0.172 0.462l-7.005 7.005 7.005 7.004c0.107 0.107 0.172 0.243 0.172 0.462s-0.065 0.355-0.172 0.462-0.243 0.172-0.462 0.172c-0.219 0-0.355-0.065-0.462-0.172l-7.004-7.005-7.005 7.005c-0.107 0.107-0.243 0.172-0.462 0.172s-0.354-0.065-0.461-0.172c-0.107-0.107-0.172-0.243-0.172-0.462s0.065-0.355 0.172-0.462l7.004-7.004-7.004-7.005c-0.107-0.107-0.172-0.243-0.172-0.462s0.065-0.354 0.172-0.461 0.242-0.172 0.461-0.172c0.219 0 0.355 0.065 0.462 0.172l7.005 7.004 7.004-7.004c0.107-0.107 0.243-0.172 0.462-0.172z"></path>
</symbol>
<symbol id="icon-close" viewBox="0 0 32 32">
<path fill="#fff" style="fill: var(--color1, #fff)" stroke-linejoin="miter" stroke-linecap="butt" stroke-miterlimit="4" stroke-width="1" stroke="#000" d="M21.6 9.925c0.164 0 0.266 0.049 0.347 0.129s0.129 0.182 0.129 0.346c0 0.164-0.049 0.266-0.129 0.347l-5.254 5.254 5.254 5.253c0.080 0.080 0.129 0.183 0.129 0.347s-0.049 0.266-0.129 0.347-0.182 0.129-0.347 0.129c-0.164 0-0.266-0.049-0.347-0.129l-5.253-5.254-5.254 5.254c-0.080 0.080-0.182 0.129-0.347 0.129s-0.265-0.049-0.346-0.129c-0.080-0.080-0.129-0.182-0.129-0.347s0.049-0.266 0.129-0.347l5.253-5.253-5.253-5.254c-0.080-0.080-0.129-0.182-0.129-0.347s0.049-0.265 0.129-0.346 0.182-0.129 0.346-0.129c0.164 0 0.266 0.049 0.347 0.129l5.254 5.253 5.253-5.253c0.080-0.080 0.183-0.129 0.347-0.129z"></path>
</symbol>
</defs>
</svg>
