<!-- Generated by IcoMoon.io -->
<svg version="1.1" xmlns="http://www.w3.org/2000/svg" width="1024" height="1024" viewBox="0 0 1024 1024">
<g id="icomoon-ignore">
</g>
<path fill="#eaecf9" d="M0 0h1024v1024h-1024v-1024z"></path>
<path fill="#03030a" d="M422.051 562.659h142.442c7.446 0 13.738-2.579 18.867-7.731 5.133-5.162 7.696-11.488 7.696-18.982 0-7.549-2.563-13.875-7.696-18.973-5.13-5.094-11.421-7.645-18.867-7.645h-142.442c-7.546 0-13.853 2.592-18.922 7.776-5.069 5.181-7.603 11.536-7.603 19.066s2.534 13.824 7.603 18.886c5.069 5.069 11.376 7.603 18.922 7.603zM421.939 483.587h291.171c7.398 0 13.661-2.582 18.794-7.741 5.123-5.155 7.686-11.478 7.686-18.973 0-7.552-2.563-13.875-7.686-18.973-5.133-5.094-11.395-7.645-18.794-7.645h-291.171c-7.472 0-13.741 2.592-18.81 7.776-5.069 5.174-7.603 11.53-7.603 19.056 0 7.53 2.534 13.827 7.603 18.896s11.338 7.603 18.81 7.603zM421.939 404.515h291.171c7.398 0 13.661-2.582 18.794-7.741 5.123-5.155 7.686-11.478 7.686-18.973 0-7.552-2.563-13.875-7.686-18.973-5.133-5.098-11.395-7.645-18.794-7.645h-291.171c-7.472 0-13.741 2.589-18.81 7.766-5.069 5.181-7.603 11.539-7.603 19.066 0 7.53 2.534 13.827 7.603 18.896s11.338 7.603 18.81 7.603zM328.614 753.901c-15.79 0-29.482-5.795-41.078-17.386-11.59-11.597-17.385-25.29-17.385-41.078v-476.826c0-15.846 5.795-29.587 17.385-41.222 11.596-11.63 25.288-17.445 41.078-17.445h476.826c15.846 0 29.587 5.815 41.222 17.445 11.632 11.636 17.446 25.376 17.446 41.222v476.826c0 15.789-5.814 29.482-17.446 41.078-11.635 11.59-25.376 17.386-41.222 17.386h-476.826zM328.614 695.437h476.826v-476.826h-476.826v476.826zM218.667 864.051c-15.846 0-29.587-5.814-41.222-17.446-11.63-11.635-17.445-25.376-17.445-41.219v-506.064c0-8.249 2.823-15.182 8.469-20.8s12.651-8.426 21.015-8.426c8.363 0 15.316 2.809 20.86 8.426 5.549 5.618 8.324 12.551 8.324 20.8v506.064h506.062c8.25 0 15.181 2.822 20.8 8.467 5.616 5.651 8.426 12.656 8.426 21.014 0 8.365-2.81 15.322-8.426 20.87-5.619 5.542-12.55 8.314-20.8 8.314h-506.062z"></path>
</svg>
