<svg aria-hidden="true" style="position: absolute; width: 0; height: 0; overflow: hidden;" version="1.1" xmlns="http://www.w3.org/2000/svg" xmlns:xlink="http://www.w3.org/1999/xlink">
<defs>
<symbol id="icon-close" viewBox="0 0 32 32">
<path stroke-linejoin="miter" stroke-linecap="butt" stroke-miterlimit="4" stroke-width="1.3333" d="M23.466 7.9c0.219 0 0.355 0.065 0.462 0.172s0.172 0.242 0.172 0.461c0 0.219-0.065 0.355-0.172 0.462l-7.005 7.005 7.005 7.004c0.107 0.107 0.172 0.243 0.172 0.462s-0.065 0.355-0.172 0.462-0.243 0.172-0.462 0.172c-0.219 0-0.355-0.065-0.462-0.172l-7.004-7.005-7.005 7.005c-0.107 0.107-0.243 0.172-0.462 0.172s-0.354-0.065-0.461-0.172c-0.107-0.107-0.172-0.243-0.172-0.462s0.065-0.355 0.172-0.462l7.004-7.004-7.004-7.005c-0.107-0.107-0.172-0.243-0.172-0.462s0.065-0.354 0.172-0.461 0.242-0.172 0.461-0.172c0.219 0 0.355 0.065 0.462 0.172l7.005 7.004 7.004-7.004c0.107-0.107 0.243-0.172 0.462-0.172z"></path>
</symbol>
<symbol id="icon-facebook" viewBox="0 0 32 32">
<path d="M29.333 16.405c0-7.409-5.969-13.415-13.333-13.415s-13.333 6.006-13.333 13.415c0 6.696 4.876 12.245 11.25 13.252v-9.374h-3.385v-3.878h3.385v-2.955c0-3.362 1.991-5.219 5.036-5.219 1.459 0 2.985 0.262 2.985 0.262v3.301h-1.681c-1.656 0-2.173 1.034-2.173 2.095v2.516h3.698l-0.591 3.878h-3.107v9.374c6.374-1.006 11.25-6.556 11.25-13.252z"></path>
</symbol>
<symbol id="icon-instagram" viewBox="0 0 32 32">
<path d="M15.998 6.161c3.206 0 3.585 0.014 4.846 0.071 1.172 0.052 1.804 0.248 2.226 0.412 0.558 0.216 0.961 0.478 1.378 0.895 0.422 0.422 0.679 0.82 0.9 1.378 0.164 0.422 0.361 1.059 0.413 2.226 0.056 1.266 0.070 1.645 0.070 4.847s-0.014 3.585-0.070 4.847c-0.052 1.172-0.248 1.804-0.413 2.227-0.216 0.558-0.478 0.961-0.895 1.377-0.422 0.422-0.82 0.679-1.378 0.9-0.422 0.164-1.060 0.361-2.226 0.412-1.266 0.056-1.645 0.071-4.847 0.071s-3.585-0.014-4.847-0.071c-1.172-0.052-1.804-0.248-2.226-0.412-0.558-0.216-0.961-0.478-1.378-0.895-0.422-0.422-0.679-0.82-0.9-1.378-0.164-0.422-0.361-1.060-0.412-2.226-0.056-1.266-0.071-1.645-0.071-4.847s0.014-3.585 0.071-4.847c0.052-1.172 0.248-1.804 0.412-2.226 0.216-0.558 0.478-0.961 0.895-1.378 0.422-0.422 0.82-0.679 1.378-0.9 0.422-0.164 1.059-0.361 2.226-0.412 1.261-0.056 1.641-0.071 4.847-0.071h0.001zM15.998 4.001c-3.258 0-3.665 0.014-4.945 0.071-1.275 0.056-2.151 0.262-2.91 0.558-0.792 0.309-1.462 0.717-2.127 1.387-0.67 0.666-1.078 1.336-1.387 2.123-0.295 0.764-0.502 1.636-0.558 2.91-0.056 1.285-0.071 1.692-0.071 4.949s0.014 3.665 0.071 4.945c0.056 1.275 0.262 2.151 0.558 2.91 0.31 0.792 0.717 1.462 1.387 2.127 0.665 0.665 1.336 1.078 2.123 1.383 0.764 0.295 1.636 0.502 2.91 0.558 1.279 0.056 1.687 0.071 4.945 0.071s3.666-0.014 4.945-0.071c1.275-0.056 2.151-0.262 2.91-0.558 0.787-0.305 1.458-0.717 2.123-1.383s1.078-1.336 1.383-2.123c0.295-0.764 0.502-1.635 0.558-2.91 0.056-1.279 0.071-1.687 0.071-4.945s-0.014-3.665-0.071-4.945c-0.056-1.275-0.262-2.151-0.558-2.91-0.295-0.797-0.703-1.467-1.373-2.133-0.665-0.665-1.336-1.078-2.123-1.383-0.764-0.295-1.636-0.502-2.91-0.558-1.284-0.061-1.692-0.075-4.949-0.075l-0.001 0.001z"></path>
<path d="M15.997 9.836c-3.402 0-6.163 2.76-6.163 6.163s2.76 6.163 6.163 6.163c3.403 0 6.163-2.76 6.163-6.163s-2.76-6.163-6.163-6.163zM15.997 19.997c-2.208 0-3.998-1.79-3.998-3.998s1.79-3.998 3.998-3.998c2.208 0 3.998 1.79 3.998 3.998s-1.79 3.998-3.998 3.998z"></path>
<path d="M23.842 9.592c0 0.795-0.644 1.439-1.439 1.439s-1.439-0.644-1.439-1.439 0.644-1.439 1.439-1.439c0.795 0 1.439 0.644 1.439 1.439z"></path>
</symbol>
<symbol id="icon-linkedIn" viewBox="0 0 32 32">
<path d="M25.75 4h-19.5c-1.237 0-2.25 1.013-2.25 2.25v19.5c0 1.237 1.013 2.25 2.25 2.25h19.5c1.237 0 2.25-1.013 2.25-2.25v-19.5c0-1.237-1.013-2.25-2.25-2.25zM13 23.5h-3v-10.5h3v10.5zM11.5 11.5c-0.829 0-1.5-0.671-1.5-1.5s0.671-1.5 1.5-1.5c0.829 0 1.5 0.671 1.5 1.5s-0.671 1.5-1.5 1.5zM23.5 23.5h-3v-6c0-0.829-0.671-1.5-1.5-1.5s-1.5 0.671-1.5 1.5v6h-3v-10.5h3v1.861c0.619-0.848 1.565-1.861 2.625-1.861 1.866 0 3.375 1.679 3.375 3.75v6.75z"></path>
</symbol>
<symbol id="icon-logo" viewBox="0 0 31 32">
<path d="M12.405 17.691h5.33c0.279 0 0.514-0.096 0.706-0.289s0.288-0.43 0.288-0.71c0-0.283-0.096-0.519-0.288-0.71s-0.427-0.286-0.706-0.286h-5.33c-0.282 0-0.518 0.097-0.708 0.291s-0.284 0.432-0.284 0.713 0.095 0.517 0.284 0.707c0.19 0.19 0.426 0.284 0.708 0.284zM12.401 14.732h10.896c0.277 0 0.511-0.097 0.703-0.29s0.288-0.429 0.288-0.71c0-0.283-0.096-0.519-0.288-0.71s-0.426-0.286-0.703-0.286h-10.896c-0.28 0-0.514 0.097-0.704 0.291s-0.284 0.431-0.284 0.713c0 0.282 0.095 0.517 0.284 0.707s0.424 0.284 0.704 0.284zM12.401 11.773h10.896c0.277 0 0.511-0.097 0.703-0.29s0.288-0.43 0.288-0.71c0-0.283-0.096-0.519-0.288-0.71s-0.426-0.286-0.703-0.286h-10.896c-0.28 0-0.514 0.097-0.704 0.291s-0.284 0.432-0.284 0.714c0 0.282 0.095 0.517 0.284 0.707s0.424 0.284 0.704 0.284zM8.909 24.847c-0.591 0-1.103-0.217-1.537-0.651s-0.651-0.946-0.651-1.537v-17.843c0-0.593 0.217-1.107 0.651-1.543s0.946-0.653 1.537-0.653h17.843c0.593 0 1.107 0.218 1.543 0.653s0.653 0.95 0.653 1.543v17.843c0 0.591-0.218 1.103-0.653 1.537s-0.95 0.651-1.543 0.651h-17.843zM8.909 22.659h17.843v-17.843h-17.843v17.843zM4.795 28.969c-0.593 0-1.107-0.218-1.543-0.653s-0.653-0.95-0.653-1.543v-18.937c0-0.309 0.106-0.568 0.317-0.778s0.473-0.315 0.786-0.315c0.313 0 0.573 0.105 0.781 0.315s0.311 0.47 0.311 0.778v18.937h18.937c0.309 0 0.568 0.106 0.778 0.317s0.315 0.474 0.315 0.786c0 0.313-0.105 0.573-0.315 0.781s-0.47 0.311-0.778 0.311h-18.937z"></path>
</symbol>
<symbol id="icon-company-logo" viewBox="0 0 75 32">
<path d="M7.997 17.049h2.949c0.154 0 0.284-0.053 0.391-0.16s0.159-0.238 0.159-0.393c0-0.156-0.053-0.287-0.159-0.393s-0.236-0.158-0.391-0.158h-2.949c-0.156 0-0.287 0.054-0.392 0.161s-0.157 0.239-0.157 0.395c0 0.156 0.052 0.286 0.157 0.391s0.235 0.157 0.392 0.157zM7.995 15.412h6.027c0.153 0 0.283-0.053 0.389-0.16s0.159-0.238 0.159-0.393c0-0.156-0.053-0.287-0.159-0.393s-0.236-0.158-0.389-0.158h-6.027c-0.155 0-0.284 0.054-0.389 0.161s-0.157 0.239-0.157 0.395c0 0.156 0.052 0.286 0.157 0.391s0.235 0.157 0.389 0.157zM7.995 13.775h6.027c0.153 0 0.283-0.053 0.389-0.16s0.159-0.238 0.159-0.393c0-0.156-0.053-0.287-0.159-0.393s-0.236-0.158-0.389-0.158h-6.027c-0.155 0-0.284 0.054-0.389 0.161s-0.157 0.239-0.157 0.395c0 0.156 0.052 0.286 0.157 0.391s0.235 0.157 0.389 0.157zM6.063 21.007c-0.327 0-0.61-0.12-0.85-0.36s-0.36-0.523-0.36-0.85v-9.871c0-0.328 0.12-0.612 0.36-0.853s0.523-0.361 0.85-0.361h9.87c0.328 0 0.612 0.12 0.853 0.361s0.361 0.525 0.361 0.853v9.871c0 0.327-0.12 0.61-0.361 0.85s-0.525 0.36-0.853 0.36h-9.87zM6.063 19.797h9.87v-9.871h-9.87v9.871zM3.787 23.288c-0.328 0-0.612-0.12-0.853-0.361s-0.361-0.525-0.361-0.853v-10.476c0-0.171 0.058-0.314 0.175-0.431s0.262-0.174 0.435-0.174c0.173 0 0.317 0.058 0.432 0.174s0.172 0.26 0.172 0.431v10.476h10.476c0.171 0 0.314 0.058 0.431 0.175s0.174 0.262 0.174 0.435c0 0.173-0.058 0.317-0.174 0.432s-0.26 0.172-0.431 0.172h-10.476z"></path>
<path d="M69.9 20.48v-5.072h-1.305v-1.468h1.305v-2.15c0-0.554 0.094-1.008 0.282-1.364 0.197-0.356 0.459-0.623 0.786-0.801s0.697-0.267 1.112-0.267h0.949v1.483h-0.534c-0.247 0-0.435 0.089-0.563 0.267-0.129 0.168-0.193 0.43-0.193 0.786v2.046h1.543v1.468h-1.543v5.072h-1.839z"></path>
<path d="M61.64 20.48v-6.54h1.839v0.919c0.217-0.316 0.499-0.568 0.845-0.756 0.346-0.198 0.741-0.297 1.186-0.297 0.563 0 1.023 0.119 1.379 0.356 0.356 0.227 0.623 0.554 0.801 0.979s0.267 0.929 0.267 1.513v3.826h-1.839v-3.826c0-0.257-0.035-0.484-0.104-0.682s-0.183-0.351-0.341-0.46c-0.158-0.109-0.366-0.163-0.623-0.163-0.336 0-0.623 0.094-0.86 0.282-0.237 0.178-0.415 0.425-0.534 0.741-0.119 0.306-0.178 0.648-0.178 1.023v3.085h-1.839z"></path>
<path d="M56.892 20.598c-0.702 0-1.335-0.138-1.898-0.415-0.564-0.287-1.008-0.687-1.335-1.201s-0.489-1.107-0.489-1.78c0-0.662 0.163-1.246 0.489-1.75 0.326-0.514 0.771-0.919 1.335-1.216s1.196-0.445 1.898-0.445c0.702 0 1.33 0.148 1.883 0.445 0.564 0.297 1.008 0.702 1.335 1.216 0.336 0.504 0.504 1.087 0.504 1.75 0 0.672-0.163 1.265-0.489 1.78s-0.771 0.915-1.335 1.201c-0.563 0.277-1.196 0.415-1.898 0.415zM56.892 19.115c0.405 0 0.742-0.089 1.008-0.267 0.267-0.188 0.465-0.425 0.593-0.712 0.128-0.297 0.193-0.608 0.193-0.934 0-0.336-0.069-0.648-0.208-0.934-0.129-0.297-0.326-0.534-0.593-0.712-0.257-0.188-0.588-0.282-0.994-0.282s-0.741 0.094-1.008 0.282c-0.267 0.178-0.47 0.415-0.608 0.712-0.129 0.287-0.193 0.598-0.193 0.934 0 0.326 0.064 0.638 0.193 0.934 0.129 0.287 0.326 0.524 0.593 0.712 0.277 0.178 0.618 0.267 1.023 0.267z"></path>
<path d="M47.856 20.628c-0.712 0-1.379-0.133-2.002-0.4s-1.172-0.638-1.646-1.112c-0.465-0.484-0.83-1.038-1.097-1.661-0.267-0.633-0.4-1.305-0.4-2.017 0-0.702 0.129-1.364 0.386-1.987 0.267-0.633 0.633-1.186 1.097-1.661 0.475-0.484 1.023-0.86 1.646-1.127 0.623-0.277 1.295-0.415 2.017-0.415 0.741 0 1.434 0.148 2.076 0.445s1.201 0.702 1.676 1.216c0.484 0.504 0.845 1.097 1.083 1.78h-2.032c-0.277-0.554-0.672-0.974-1.186-1.261s-1.073-0.43-1.676-0.43c-0.405 0-0.801 0.084-1.186 0.252s-0.732 0.41-1.038 0.727c-0.306 0.306-0.554 0.672-0.741 1.097-0.178 0.415-0.267 0.87-0.267 1.364 0 0.475 0.084 0.924 0.252 1.349 0.178 0.415 0.415 0.781 0.712 1.097 0.297 0.307 0.643 0.554 1.038 0.742 0.405 0.178 0.835 0.267 1.29 0.267 0.603 0 1.157-0.158 1.661-0.475 0.514-0.326 0.9-0.741 1.157-1.246h2.032c-0.237 0.672-0.598 1.27-1.083 1.794-0.475 0.514-1.038 0.919-1.691 1.216-0.643 0.297-1.335 0.445-2.076 0.445z"></path>
<path d="M37.906 20.628c-0.554 0-1.008-0.119-1.364-0.356-0.356-0.247-0.623-0.583-0.801-1.008-0.168-0.435-0.252-0.929-0.252-1.483v-3.841h1.839v3.841c0 0.257 0.035 0.484 0.104 0.682s0.183 0.351 0.341 0.46c0.158 0.109 0.366 0.163 0.623 0.163 0.356 0 0.648-0.089 0.875-0.267 0.237-0.188 0.41-0.44 0.519-0.756 0.119-0.316 0.178-0.657 0.178-1.023v-3.099h1.839v6.54h-1.839v-0.905c-0.227 0.326-0.514 0.583-0.86 0.771s-0.746 0.282-1.201 0.282z"></path>
<path d="M29.917 20.628c-0.613 0-1.167-0.158-1.661-0.475-0.484-0.316-0.865-0.737-1.142-1.26s-0.415-1.083-0.415-1.676c0-0.603 0.138-1.162 0.415-1.676s0.657-0.934 1.142-1.261c0.494-0.326 1.048-0.489 1.661-0.489 0.455 0 0.885 0.084 1.29 0.252s0.746 0.435 1.023 0.801v-5.487h1.824v11.122h-1.824v-0.89c-0.158 0.227-0.361 0.42-0.608 0.578-0.247 0.148-0.519 0.262-0.816 0.341-0.287 0.079-0.583 0.119-0.89 0.119zM30.421 19.101c0.346 0 0.652-0.089 0.919-0.267 0.277-0.178 0.494-0.41 0.653-0.697s0.237-0.593 0.237-0.919c0-0.336-0.079-0.643-0.237-0.919-0.158-0.287-0.376-0.519-0.653-0.697-0.267-0.178-0.573-0.267-0.919-0.267s-0.653 0.089-0.919 0.267-0.479 0.41-0.638 0.697c-0.158 0.277-0.237 0.583-0.237 0.919 0 0.326 0.079 0.633 0.237 0.919s0.371 0.519 0.638 0.697c0.267 0.178 0.573 0.267 0.919 0.267z"></path>
<path d="M19.783 20.48v-10.084h6.184v1.661h-4.36v2.536h4.212v1.676h-4.212v2.551h4.36v1.661h-6.184z"></path>
</symbol>
<symbol id="icon-menu" viewBox="0 0 32 32">
<path d="M4.936 24.295c-0.321 0-0.59-0.11-0.808-0.329s-0.327-0.493-0.327-0.82c0-0.322 0.109-0.591 0.327-0.807s0.488-0.323 0.808-0.323h22.127c0.321 0 0.591 0.11 0.812 0.329s0.331 0.49 0.331 0.812c0 0.328-0.11 0.599-0.331 0.814s-0.492 0.323-0.812 0.323h-22.127zM4.936 17.136c-0.321 0-0.59-0.11-0.808-0.329s-0.327-0.49-0.327-0.812c0-0.322 0.109-0.591 0.327-0.806s0.488-0.323 0.808-0.323h22.127c0.321 0 0.591 0.11 0.812 0.329s0.331 0.49 0.331 0.812c0 0.322-0.11 0.591-0.331 0.806s-0.492 0.323-0.812 0.323h-22.127zM4.936 9.984c-0.321 0-0.59-0.11-0.808-0.329s-0.327-0.493-0.327-0.82c0-0.322 0.109-0.591 0.327-0.806s0.488-0.323 0.808-0.323h22.127c0.321 0 0.591 0.11 0.812 0.329s0.331 0.49 0.331 0.812c0 0.328-0.11 0.599-0.331 0.815s-0.492 0.323-0.812 0.323h-22.127z"></path>
</symbol>
<symbol id="icon-verified" viewBox="0 0 32 32">
<path d="M14.567 17.503l-2.393-2.502c-0.212-0.233-0.469-0.349-0.77-0.349s-0.569 0.103-0.802 0.308c-0.233 0.236-0.349 0.504-0.349 0.805s0.116 0.568 0.349 0.801l3.162 3.128c0.229 0.232 0.497 0.348 0.805 0.348s0.576-0.116 0.802-0.348l6.028-5.995c0.21-0.205 0.316-0.46 0.316-0.765s-0.116-0.563-0.349-0.773c-0.211-0.183-0.462-0.269-0.753-0.258s-0.528 0.111-0.711 0.299l-5.335 5.302zM10.923 29.351l-2.051-3.509-4.101-0.833c-0.282-0.050-0.515-0.199-0.7-0.449s-0.256-0.514-0.211-0.795l0.467-3.966-2.609-3.045c-0.199-0.207-0.299-0.459-0.299-0.756s0.1-0.548 0.299-0.753l2.609-3.012-0.467-3.966c-0.044-0.28 0.026-0.545 0.211-0.795s0.419-0.402 0.7-0.457l4.104-0.827 2.048-3.541c0.148-0.246 0.362-0.421 0.642-0.525s0.557-0.092 0.834 0.035l3.601 1.684 3.601-1.684c0.276-0.122 0.554-0.138 0.834-0.048s0.493 0.257 0.642 0.504l2.082 3.574 4.071 0.827c0.282 0.055 0.515 0.207 0.7 0.457s0.256 0.514 0.211 0.795l-0.467 3.966 2.609 3.012c0.199 0.206 0.299 0.458 0.299 0.756s-0.1 0.548-0.299 0.753l-2.609 3.045 0.467 3.966c0.044 0.28-0.026 0.545-0.211 0.795s-0.419 0.399-0.7 0.449l-4.068 0.833-2.084 3.543c-0.149 0.247-0.363 0.415-0.642 0.504s-0.557 0.073-0.834-0.048l-3.601-1.684-3.601 1.684c-0.276 0.122-0.554 0.132-0.834 0.032s-0.493-0.274-0.642-0.521zM12.463 27.279l3.536-1.497 3.636 1.497 2.218-3.309 3.868-0.992-0.392-3.944 2.668-3.034-2.668-3.101 0.392-3.943-3.868-0.925-2.281-3.309-3.57 1.496-3.636-1.496-2.215 3.311-3.862 0.92 0.384 3.946-2.668 3.101 2.668 3.035-0.384 4.013 3.861 0.92 2.314 3.311z"></path>
</symbol>
<symbol id="icon-x-social" viewBox="0 0 32 32">
<path d="M22.901 5.657h3.68l-8.040 9.037 9.459 12.297h-7.406l-5.801-7.458-6.637 7.458h-3.682l8.6-9.666-9.074-11.668h7.594l5.243 6.817 6.064-6.817zM21.61 24.824h2.039l-13.163-17.115h-2.188l13.312 17.115z"></path>
</symbol>
</defs>
</svg>
