<svg aria-hidden="true" style="position: absolute; width: 0; height: 0; overflow: hidden;" version="1.1" xmlns="http://www.w3.org/2000/svg" xmlns:xlink="http://www.w3.org/1999/xlink">
<defs>
<symbol id="icon-logo" viewBox="0 0 131 32">
<path d="M12.816 18.101h5.33c0.279 0 0.514-0.096 0.706-0.289s0.288-0.43 0.288-0.71c0-0.283-0.096-0.519-0.288-0.71s-0.427-0.286-0.706-0.286h-5.33c-0.282 0-0.518 0.097-0.708 0.291s-0.284 0.432-0.284 0.713 0.095 0.517 0.284 0.707c0.19 0.19 0.426 0.284 0.708 0.284zM12.811 15.142h10.896c0.277 0 0.511-0.097 0.703-0.29s0.288-0.429 0.288-0.71c0-0.283-0.096-0.519-0.288-0.71s-0.426-0.286-0.703-0.286h-10.896c-0.28 0-0.514 0.097-0.704 0.291s-0.284 0.431-0.284 0.713c0 0.282 0.095 0.517 0.284 0.707s0.424 0.284 0.704 0.284zM12.811 12.183h10.896c0.277 0 0.511-0.097 0.703-0.29s0.288-0.43 0.288-0.71c0-0.283-0.096-0.519-0.288-0.71s-0.426-0.286-0.703-0.286h-10.896c-0.28 0-0.514 0.097-0.704 0.291s-0.284 0.432-0.284 0.714c0 0.282 0.095 0.517 0.284 0.707s0.424 0.284 0.704 0.284zM9.319 25.257c-0.591 0-1.103-0.217-1.537-0.651s-0.651-0.946-0.651-1.537v-17.843c0-0.593 0.217-1.107 0.651-1.543s0.946-0.653 1.537-0.653h17.843c0.593 0 1.107 0.218 1.542 0.653s0.653 0.95 0.653 1.543v17.843c0 0.591-0.218 1.103-0.653 1.537s-0.95 0.651-1.542 0.651h-17.843zM9.319 23.069h17.843v-17.843h-17.843v17.843zM5.205 29.379c-0.593 0-1.107-0.218-1.543-0.653s-0.653-0.95-0.653-1.543v-18.937c0-0.309 0.106-0.568 0.317-0.778s0.473-0.315 0.786-0.315c0.313 0 0.573 0.105 0.781 0.315s0.311 0.47 0.311 0.778v18.937h18.937c0.309 0 0.568 0.106 0.778 0.317s0.315 0.474 0.315 0.786c0 0.313-0.105 0.573-0.315 0.781s-0.47 0.311-0.778 0.311h-18.937z"></path>
<path d="M124.717 24.303v-9.168h-2.359v-2.654h2.359v-3.887c0-1.001 0.17-1.823 0.51-2.466 0.357-0.643 0.831-1.126 1.42-1.448s1.26-0.483 2.011-0.483h1.716v2.681h-0.965c-0.447 0-0.787 0.161-1.019 0.483-0.232 0.304-0.349 0.777-0.349 1.421v3.699h2.788v2.654h-2.788v9.168h-3.324z"></path>
<path d="M109.786 24.303v-11.822h3.324v1.662c0.393-0.572 0.903-1.028 1.528-1.367 0.626-0.357 1.341-0.536 2.145-0.536 1.019 0 1.849 0.214 2.493 0.643 0.644 0.411 1.127 1.001 1.448 1.769s0.482 1.68 0.482 2.734v6.916h-3.324v-6.916c0-0.465-0.063-0.876-0.188-1.233s-0.331-0.634-0.617-0.831c-0.286-0.197-0.66-0.295-1.126-0.295-0.607 0-1.126 0.17-1.555 0.509-0.428 0.322-0.751 0.769-0.965 1.34-0.214 0.554-0.322 1.171-0.322 1.85v5.576h-3.324z"></path>
<path d="M101.203 24.518c-1.269 0-2.412-0.25-3.431-0.751-1.018-0.518-1.822-1.242-2.412-2.171s-0.885-2.002-0.885-3.217c0-1.197 0.295-2.252 0.885-3.163 0.59-0.929 1.394-1.662 2.412-2.198s2.163-0.804 3.431-0.804c1.269 0 2.404 0.268 3.404 0.804 1.019 0.536 1.823 1.269 2.413 2.198 0.607 0.912 0.912 1.966 0.912 3.163 0 1.215-0.295 2.288-0.885 3.217s-1.394 1.653-2.413 2.171c-1.018 0.5-2.162 0.751-3.431 0.751zM101.203 21.837c0.733 0 1.341-0.161 1.823-0.483 0.482-0.34 0.84-0.768 1.072-1.287 0.232-0.536 0.348-1.099 0.348-1.689 0-0.608-0.125-1.171-0.375-1.689-0.232-0.536-0.59-0.965-1.072-1.287-0.464-0.34-1.063-0.509-1.796-0.509s-1.34 0.17-1.822 0.509c-0.483 0.322-0.849 0.751-1.1 1.287-0.232 0.518-0.349 1.081-0.349 1.689 0 0.59 0.117 1.153 0.349 1.689 0.232 0.518 0.59 0.947 1.072 1.287 0.501 0.322 1.117 0.483 1.849 0.483z"></path>
<path d="M84.87 24.571c-1.287 0-2.494-0.241-3.619-0.724s-2.118-1.153-2.976-2.011c-0.84-0.876-1.501-1.877-1.984-3.002-0.483-1.144-0.724-2.359-0.724-3.646 0-1.269 0.232-2.466 0.697-3.592 0.483-1.144 1.144-2.145 1.984-3.002 0.858-0.876 1.85-1.555 2.976-2.037 1.126-0.5 2.341-0.751 3.646-0.751 1.34 0 2.591 0.268 3.753 0.804s2.171 1.269 3.029 2.198c0.876 0.911 1.528 1.984 1.957 3.217h-3.673c-0.501-1.001-1.216-1.76-2.145-2.279s-1.939-0.777-3.029-0.777c-0.733 0-1.447 0.152-2.145 0.456s-1.322 0.742-1.876 1.314c-0.554 0.554-1.001 1.215-1.34 1.984-0.322 0.751-0.483 1.573-0.483 2.466 0 0.858 0.152 1.671 0.456 2.439 0.322 0.751 0.751 1.412 1.287 1.984 0.536 0.554 1.162 1.001 1.876 1.34 0.733 0.322 1.511 0.483 2.333 0.483 1.090 0 2.091-0.286 3.002-0.858 0.93-0.59 1.626-1.34 2.091-2.252h3.673c-0.428 1.215-1.081 2.296-1.957 3.244-0.857 0.929-1.876 1.662-3.056 2.198-1.162 0.536-2.413 0.804-3.753 0.804z"></path>
<path d="M66.882 24.571c-1.001 0-1.823-0.214-2.466-0.643-0.643-0.447-1.126-1.054-1.448-1.823-0.304-0.786-0.456-1.68-0.456-2.681v-6.943h3.324v6.943c0 0.465 0.063 0.876 0.188 1.233s0.331 0.634 0.617 0.831c0.286 0.197 0.661 0.295 1.126 0.295 0.643 0 1.171-0.161 1.582-0.483 0.429-0.34 0.742-0.795 0.938-1.367 0.214-0.572 0.322-1.188 0.322-1.85v-5.603h3.324v11.822h-3.324v-1.635c-0.411 0.59-0.929 1.054-1.555 1.394s-1.349 0.509-2.171 0.509z"></path>
<path d="M52.441 24.571c-1.108 0-2.109-0.286-3.002-0.858-0.876-0.572-1.564-1.331-2.064-2.279s-0.751-1.957-0.751-3.029c0-1.090 0.25-2.1 0.751-3.029s1.188-1.689 2.064-2.279c0.894-0.59 1.894-0.885 3.002-0.885 0.822 0 1.599 0.152 2.332 0.456s1.349 0.786 1.85 1.448v-9.919h3.297v20.106h-3.297v-1.608c-0.286 0.411-0.652 0.76-1.099 1.046-0.447 0.268-0.938 0.474-1.474 0.617-0.518 0.143-1.054 0.214-1.608 0.214zM53.352 21.81c0.626 0 1.18-0.161 1.662-0.483 0.5-0.322 0.894-0.742 1.179-1.26s0.429-1.072 0.429-1.662c0-0.608-0.143-1.162-0.429-1.662-0.286-0.518-0.679-0.938-1.179-1.26-0.483-0.322-1.037-0.483-1.662-0.483s-1.179 0.161-1.662 0.483c-0.483 0.322-0.867 0.742-1.153 1.26-0.286 0.5-0.429 1.054-0.429 1.662 0 0.59 0.143 1.144 0.429 1.662s0.67 0.938 1.153 1.26c0.483 0.322 1.037 0.483 1.662 0.483z"></path>
<path d="M34.122 24.303v-18.229h11.179v3.002h-7.881v4.584h7.613v3.029h-7.613v4.611h7.881v3.002h-11.179z"></path>
</symbol>
<symbol id="icon-burger" viewBox="0 0 32 32">
<path d="M4.799 8.001c0-0.424 0.169-0.831 0.469-1.131s0.707-0.469 1.131-0.469h19.2c0.424 0 0.831 0.169 1.131 0.469s0.469 0.707 0.469 1.131-0.169 0.831-0.469 1.131c-0.3 0.3-0.707 0.469-1.131 0.469h-19.2c-0.424 0-0.831-0.169-1.131-0.469s-0.469-0.707-0.469-1.131z"></path>
<path d="M4.799 16.001c0-0.424 0.169-0.831 0.469-1.131s0.707-0.469 1.131-0.469h19.2c0.424 0 0.831 0.169 1.131 0.469s0.469 0.707 0.469 1.131c0 0.424-0.169 0.831-0.469 1.131s-0.707 0.469-1.131 0.469h-19.2c-0.424 0-0.831-0.169-1.131-0.469s-0.469-0.707-0.469-1.131z"></path>
<path d="M4.799 24.001c0-0.424 0.169-0.831 0.469-1.131s0.707-0.469 1.131-0.469h19.2c0.424 0 0.831 0.169 1.131 0.469s0.469 0.707 0.469 1.131c0 0.424-0.169 0.831-0.469 1.131s-0.707 0.469-1.131 0.469h-19.2c-0.424 0-0.831-0.169-1.131-0.469s-0.469-0.707-0.469-1.131z"></path>
</symbol>
<symbol id="icon-verified" viewBox="0 0 32 32">
<path d="M14.567 17.503l-2.393-2.502c-0.212-0.233-0.469-0.349-0.77-0.349s-0.569 0.103-0.802 0.308c-0.233 0.236-0.349 0.504-0.349 0.805s0.116 0.568 0.349 0.801l3.162 3.128c0.229 0.232 0.497 0.348 0.805 0.348s0.576-0.116 0.802-0.348l6.028-5.995c0.21-0.205 0.316-0.46 0.316-0.765s-0.116-0.563-0.349-0.773c-0.211-0.183-0.462-0.269-0.753-0.258s-0.528 0.111-0.711 0.299l-5.335 5.302zM10.923 29.351l-2.051-3.509-4.101-0.833c-0.282-0.050-0.515-0.199-0.7-0.449s-0.256-0.514-0.211-0.795l0.467-3.966-2.609-3.045c-0.199-0.207-0.299-0.459-0.299-0.756s0.1-0.548 0.299-0.753l2.609-3.012-0.467-3.966c-0.044-0.28 0.026-0.545 0.211-0.795s0.419-0.402 0.7-0.457l4.104-0.827 2.048-3.541c0.148-0.246 0.362-0.421 0.642-0.525s0.557-0.092 0.834 0.035l3.601 1.684 3.601-1.684c0.276-0.122 0.554-0.138 0.834-0.048s0.493 0.257 0.642 0.504l2.082 3.574 4.071 0.827c0.282 0.055 0.515 0.207 0.7 0.457s0.256 0.514 0.211 0.795l-0.467 3.966 2.609 3.012c0.199 0.206 0.299 0.458 0.299 0.756s-0.1 0.548-0.299 0.753l-2.609 3.045 0.467 3.966c0.044 0.28-0.026 0.545-0.211 0.795s-0.419 0.399-0.7 0.449l-4.068 0.833-2.084 3.543c-0.149 0.247-0.363 0.415-0.642 0.504s-0.557 0.073-0.834-0.048l-3.601-1.684-3.601 1.684c-0.276 0.122-0.554 0.132-0.834 0.032s-0.493-0.274-0.642-0.521zM12.463 27.279l3.536-1.497 3.636 1.497 2.218-3.309 3.868-0.992-0.392-3.944 2.668-3.034-2.668-3.101 0.392-3.943-3.868-0.925-2.281-3.309-3.57 1.496-3.636-1.496-2.215 3.311-3.862 0.92 0.384 3.946-2.668 3.101 2.668 3.035-0.384 4.013 3.861 0.92 2.314 3.311z"></path>
</symbol>
<symbol id="icon-close" viewBox="0 0 32 32">
<path stroke-linejoin="miter" stroke-linecap="butt" stroke-miterlimit="4" stroke-width="1.3333" d="M23.466 7.9c0.219 0 0.355 0.065 0.462 0.172s0.172 0.242 0.172 0.461c0 0.219-0.065 0.355-0.172 0.462l-7.005 7.005 7.005 7.004c0.107 0.107 0.172 0.243 0.172 0.462s-0.065 0.355-0.172 0.462-0.243 0.172-0.462 0.172c-0.219 0-0.355-0.065-0.462-0.172l-7.004-7.005-7.005 7.005c-0.107 0.107-0.243 0.172-0.462 0.172s-0.354-0.065-0.461-0.172c-0.107-0.107-0.172-0.243-0.172-0.462s0.065-0.355 0.172-0.462l7.004-7.004-7.004-7.005c-0.107-0.107-0.172-0.243-0.172-0.462s0.065-0.354 0.172-0.461 0.242-0.172 0.461-0.172c0.219 0 0.355 0.065 0.462 0.172l7.005 7.004 7.004-7.004c0.107-0.107 0.243-0.172 0.462-0.172z"></path>
</symbol>
</defs>
</svg>
