<svg width="108" height="26" viewBox="0 0 108 26" fill="none" xmlns="http://www.w3.org/2000/svg">
<path d="M9.99615 14.573H14.419C14.6503 14.573 14.8456 14.493 15.0049 14.3329C15.1643 14.1727 15.2439 13.9763 15.2439 13.7436C15.2439 13.5091 15.1643 13.3127 15.0049 13.1545C14.8456 12.9962 14.6503 12.9171 14.419 12.9171H9.99615C9.76186 12.9171 9.56603 12.9975 9.40865 13.1585C9.25128 13.3194 9.17259 13.5167 9.17259 13.7505C9.17259 13.9843 9.25128 14.1797 9.40865 14.3369C9.56603 14.4943 9.76186 14.573 9.99615 14.573ZM9.99269 12.1178H19.0338C19.2634 12.1178 19.4579 12.0376 19.6173 11.8774C19.7764 11.7174 19.856 11.521 19.856 11.2883C19.856 11.0539 19.7764 10.8575 19.6173 10.6992C19.4579 10.541 19.2634 10.4618 19.0338 10.4618H9.99269C9.76071 10.4618 9.56603 10.5423 9.40865 10.7032C9.25128 10.864 9.17259 11.0612 9.17259 11.295C9.17259 11.5288 9.25128 11.7243 9.40865 11.8817C9.56603 12.0391 9.76071 12.1178 9.99269 12.1178ZM9.99269 9.66252H19.0338C19.2634 9.66252 19.4579 9.58241 19.6173 9.42219C19.7764 9.26215 19.856 9.06579 19.856 8.8331C19.856 8.59863 19.7764 8.40227 19.6173 8.244C19.4579 8.08574 19.2634 8.00661 19.0338 8.00661H9.99269C9.76071 8.00661 9.56603 8.08698 9.40865 8.24773C9.25128 8.40866 9.17259 8.606 9.17259 8.83976C9.17259 9.07352 9.25128 9.26908 9.40865 9.42646C9.56603 9.58384 9.76071 9.66252 9.99269 9.66252ZM7.0949 20.5111C6.60465 20.5111 6.1795 20.3312 5.81946 19.9713C5.45959 19.6113 5.27965 19.1861 5.27965 18.6959V3.89013C5.27965 3.3981 5.45959 2.97144 5.81946 2.61015C6.1795 2.24904 6.60465 2.06848 7.0949 2.06848H21.9006C22.3927 2.06848 22.8193 2.24904 23.1806 2.61015C23.5417 2.97144 23.7223 3.3981 23.7223 3.89013V18.6959C23.7223 19.1861 23.5417 19.6113 23.1806 19.9713C22.8193 20.3312 22.3927 20.5111 21.9006 20.5111H7.0949ZM7.0949 18.6959H21.9006V3.89013H7.0949V18.6959ZM3.68102 23.9314C3.18899 23.9314 2.76234 23.7508 2.40105 23.3897C2.03993 23.0284 1.85938 22.6018 1.85938 22.1098V6.39625C1.85938 6.14011 1.94703 5.92483 2.12235 5.7504C2.29767 5.57597 2.51517 5.48876 2.77486 5.48876C3.03455 5.48876 3.25045 5.57597 3.42257 5.7504C3.59487 5.92483 3.68102 6.14011 3.68102 6.39625V22.1098H19.3945C19.6507 22.1098 19.8659 22.1974 20.0404 22.3727C20.2148 22.5482 20.302 22.7657 20.302 23.0252C20.302 23.2849 20.2148 23.5009 20.0404 23.6732C19.8659 23.8453 19.6507 23.9314 19.3945 23.9314H3.68102Z" fill="#03030A"/>
<path d="M102.85 19.7196V12.112H100.893V9.90979H102.85V6.68435C102.85 5.85389 102.991 5.17172 103.273 4.63786C103.569 4.10399 103.962 3.70359 104.452 3.43666C104.941 3.16972 105.497 3.03625 106.12 3.03625H107.544V5.2607H106.743C106.372 5.2607 106.09 5.39417 105.898 5.6611C105.705 5.91321 105.608 6.30619 105.608 6.84006V9.90979H107.922V12.112H105.608V19.7196H102.85Z" fill="#03030A"/>
<path d="M90.4604 19.7196V9.90979H93.2188V11.289C93.545 10.8144 93.9677 10.4362 94.4867 10.1545C95.0057 9.85789 95.5989 9.70959 96.2663 9.70959C97.1115 9.70959 97.8011 9.88755 98.335 10.2435C98.8689 10.5845 99.2693 11.0739 99.5362 11.7116C99.8031 12.3493 99.9366 13.1056 99.9366 13.9805V19.7196H97.1783V13.9805C97.1783 13.595 97.1264 13.2539 97.0226 12.9573C96.9188 12.6607 96.7482 12.4308 96.5109 12.2677C96.2737 12.1046 95.9622 12.023 95.5767 12.023C95.0725 12.023 94.6424 12.1639 94.2865 12.4457C93.9306 12.7126 93.6636 13.0833 93.4857 13.5579C93.3077 14.0176 93.2188 14.5292 93.2188 15.0928V19.7196H90.4604Z" fill="#03030A"/>
<path d="M83.3377 19.8976C82.2848 19.8976 81.3358 19.69 80.4905 19.2747C79.6452 18.8447 78.9778 18.2441 78.4885 17.4729C77.9991 16.7018 77.7544 15.812 77.7544 14.8036C77.7544 13.81 77.9991 12.9351 78.4885 12.1788C78.9778 11.4076 79.6452 10.7996 80.4905 10.3547C81.3358 9.90982 82.2848 9.68738 83.3377 9.68738C84.3907 9.68738 85.3323 9.90982 86.1628 10.3547C87.0081 10.7996 87.6754 11.4076 88.1648 12.1788C88.669 12.9351 88.9211 13.81 88.9211 14.8036C88.9211 15.812 88.6764 16.7018 88.187 17.4729C87.6977 18.2441 87.0303 18.8447 86.185 19.2747C85.3398 19.69 84.3907 19.8976 83.3377 19.8976ZM83.3377 17.6731C83.9458 17.6731 84.45 17.5397 84.8504 17.2727C85.2508 16.991 85.5474 16.6351 85.7402 16.205C85.9329 15.7601 86.0293 15.293 86.0293 14.8036C86.0293 14.2994 85.9255 13.8323 85.7179 13.4022C85.5251 12.9573 85.2285 12.6014 84.8281 12.3345C84.4426 12.0527 83.9458 11.9118 83.3377 11.9118C82.7297 11.9118 82.2255 12.0527 81.8251 12.3345C81.4247 12.6014 81.1207 12.9573 80.9131 13.4022C80.7203 13.8323 80.6239 14.2994 80.6239 14.8036C80.6239 15.293 80.7203 15.7601 80.9131 16.205C81.1059 16.6351 81.4025 16.991 81.8029 17.2727C82.2181 17.5397 82.7297 17.6731 83.3377 17.6731Z" fill="#03030A"/>
<path d="M69.7838 19.9421C68.716 19.9421 67.715 19.7419 66.7808 19.3415C65.8465 18.9411 65.0235 18.385 64.3116 17.6732C63.6146 16.9465 63.0659 16.116 62.6655 15.1818C62.2651 14.2327 62.0649 13.2243 62.0649 12.1565C62.0649 11.1036 62.2577 10.11 62.6433 9.17577C63.0437 8.22668 63.5924 7.39622 64.2894 6.6844C65.0012 5.95774 65.8243 5.39422 66.7585 4.99382C67.6928 4.57859 68.7012 4.37097 69.7838 4.37097C70.896 4.37097 71.9341 4.59342 72.898 5.03831C73.8619 5.48319 74.6998 6.09121 75.4116 6.86235C76.1383 7.61866 76.6796 8.50844 77.0355 9.53169H73.988C73.5727 8.70123 72.9796 8.07097 72.2084 7.64091C71.4373 7.21085 70.5994 6.99582 69.6948 6.99582C69.0868 6.99582 68.4936 7.12187 67.9152 7.37397C67.3369 7.62608 66.8178 7.9894 66.3581 8.46395C65.8984 8.92367 65.5277 9.47237 65.2459 10.11C64.979 10.7329 64.8455 11.4151 64.8455 12.1565C64.8455 12.8684 64.9716 13.5431 65.2237 14.1808C65.4906 14.8036 65.8465 15.3523 66.2914 15.8269C66.7363 16.2866 67.2553 16.6573 67.8485 16.9391C68.4565 17.206 69.1016 17.3395 69.7838 17.3395C70.6884 17.3395 71.5188 17.1022 72.2751 16.6277C73.0463 16.1383 73.6246 15.5154 74.0102 14.7591H77.0577C76.7018 15.7675 76.1605 16.6647 75.4339 17.4507C74.722 18.2219 73.8767 18.8299 72.898 19.2748C71.9341 19.7196 70.896 19.9421 69.7838 19.9421Z" fill="#03030A"/>
<path d="M54.8588 19.942C54.0283 19.942 53.3461 19.7641 52.8123 19.4082C52.2784 19.0374 51.878 18.5332 51.6111 17.8956C51.359 17.243 51.2329 16.5016 51.2329 15.6711V9.90979H53.9912V15.6711C53.9912 16.0567 54.0431 16.3978 54.1469 16.6944C54.2507 16.9909 54.4213 17.2208 54.6586 17.3839C54.8958 17.5471 55.2073 17.6286 55.5928 17.6286C56.1267 17.6286 56.5642 17.4952 56.9052 17.2282C57.2612 16.9465 57.5207 16.5683 57.6838 16.0937C57.8618 15.6192 57.9507 15.1076 57.9507 14.5589V9.90979H60.709V19.7196H57.9507V18.3627C57.6097 18.8521 57.1796 19.2376 56.6606 19.5194C56.1415 19.8012 55.5409 19.942 54.8588 19.942Z" fill="#03030A"/>
<path d="M42.8759 19.942C41.9564 19.942 41.126 19.7048 40.3845 19.2302C39.6578 18.7557 39.0869 18.1254 38.6717 17.3394C38.2564 16.5535 38.0488 15.7156 38.0488 14.8258C38.0488 13.9212 38.2564 13.0833 38.6717 12.3122C39.0869 11.5411 39.6578 10.9108 40.3845 10.4214C41.126 9.93204 41.9564 9.68735 42.8759 9.68735C43.558 9.68735 44.2031 9.8134 44.8111 10.0655C45.4192 10.3176 45.9308 10.718 46.346 11.2667V3.03625H49.0821V19.7196H46.346V18.3849C46.1087 18.726 45.8047 19.0152 45.434 19.2525C45.0632 19.4749 44.6554 19.6454 44.2105 19.7641C43.7805 19.8827 43.3356 19.942 42.8759 19.942ZM43.6322 17.6509C44.1512 17.6509 44.6109 17.5174 45.0113 17.2505C45.4266 16.9835 45.7528 16.635 45.9901 16.205C46.2274 15.7749 46.346 15.3152 46.346 14.8258C46.346 14.3216 46.2274 13.8619 45.9901 13.4467C45.7528 13.0166 45.4266 12.6681 45.0113 12.4012C44.6109 12.1342 44.1512 12.0008 43.6322 12.0008C43.1131 12.0008 42.6534 12.1342 42.253 12.4012C41.8526 12.6681 41.5338 13.0166 41.2965 13.4467C41.0592 13.8619 40.9406 14.3216 40.9406 14.8258C40.9406 15.3152 41.0592 15.7749 41.2965 16.205C41.5338 16.635 41.8526 16.9835 42.253 17.2505C42.6534 17.5174 43.1131 17.6509 43.6322 17.6509Z" fill="#03030A"/>
<path d="M27.6743 19.7196V4.59338H36.9503V7.08476H30.4104V10.8886H36.7278V13.4022H30.4104V17.2282H36.9503V19.7196H27.6743Z" fill="#03030A"/>
</svg>
